<mxfile host="app.diagrams.net" modified="2021-02-01T19:30:30.006Z" agent="5.0 (X11; Linux x86_64) AppleWebKit/537.36 (KHTML, like Gecko) Chrome/87.0.4280.141 Safari/537.36" etag="wSpnkMa2Qme9IOYSAmPC" version="14.2.9" type="github">
  <diagram name="Page-1" id="e7e014a7-5840-1c2e-5031-d8a46d1fe8dd">
    <mxGraphModel dx="4013" dy="1480" grid="1" gridSize="10" guides="1" tooltips="1" connect="1" arrows="1" fold="1" page="1" pageScale="1" pageWidth="1169" pageHeight="826" background="#ffffff" math="0" shadow="0">
      <root>
        <mxCell id="0" />
        <mxCell id="1" parent="0" />
        <mxCell id="BtA0p3uq_KMj2CzqRaCu-6" value="" style="whiteSpace=wrap;html=1;aspect=fixed;dashed=1;" parent="1" vertex="1">
          <mxGeometry x="10" y="20" width="450" height="450" as="geometry" />
        </mxCell>
        <mxCell id="hjnCzS9Ko7K_M3NJ6Ssh-73" value="Postgres" style="shape=datastore;whiteSpace=wrap;html=1;" parent="1" vertex="1">
          <mxGeometry x="500" y="155" width="100" height="90" as="geometry" />
        </mxCell>
        <mxCell id="BtA0p3uq_KMj2CzqRaCu-7" value="&lt;font style=&quot;font-size: 24px&quot;&gt;Sring Boot&lt;/font&gt;" style="text;html=1;strokeColor=none;fillColor=none;align=center;verticalAlign=middle;whiteSpace=wrap;rounded=0;dashed=1;strokeWidth=1;" parent="1" vertex="1">
          <mxGeometry x="145" y="75" width="180" height="20" as="geometry" />
        </mxCell>
        <mxCell id="BtA0p3uq_KMj2CzqRaCu-9" value="«Controller»&lt;br&gt;&lt;b&gt;PersonResource&lt;/b&gt;" style="html=1;dashed=1;strokeWidth=1;" parent="1" vertex="1">
          <mxGeometry x="40" y="225" width="170" height="50" as="geometry" />
        </mxCell>
        <mxCell id="BtA0p3uq_KMj2CzqRaCu-10" value="«Model-Repository»&lt;br&gt;&lt;b&gt;PersonRepository&lt;/b&gt;" style="html=1;dashed=1;strokeWidth=1;" parent="1" vertex="1">
          <mxGeometry x="260" y="175" width="140" height="50" as="geometry" />
        </mxCell>
        <mxCell id="BtA0p3uq_KMj2CzqRaCu-12" value="«Service»&lt;br&gt;&lt;b&gt;PersonService&lt;/b&gt;" style="html=1;dashed=1;strokeWidth=1;" parent="1" vertex="1">
          <mxGeometry x="260" y="285" width="140" height="50" as="geometry" />
        </mxCell>
        <mxCell id="BtA0p3uq_KMj2CzqRaCu-15" value="" style="endArrow=classic;startArrow=classic;html=1;entryX=0;entryY=0.5;entryDx=0;entryDy=0;" parent="1" source="BtA0p3uq_KMj2CzqRaCu-10" target="hjnCzS9Ko7K_M3NJ6Ssh-73" edge="1">
          <mxGeometry width="50" height="50" relative="1" as="geometry">
            <mxPoint x="400" y="250" as="sourcePoint" />
            <mxPoint x="470.71067811865476" y="200" as="targetPoint" />
          </mxGeometry>
        </mxCell>
        <mxCell id="BtA0p3uq_KMj2CzqRaCu-19" value="" style="endArrow=classic;startArrow=classic;html=1;exitX=0.5;exitY=0;exitDx=0;exitDy=0;" parent="1" source="BtA0p3uq_KMj2CzqRaCu-12" target="BtA0p3uq_KMj2CzqRaCu-10" edge="1">
          <mxGeometry width="50" height="50" relative="1" as="geometry">
            <mxPoint x="330" y="275" as="sourcePoint" />
            <mxPoint x="380" y="225" as="targetPoint" />
          </mxGeometry>
        </mxCell>
        <mxCell id="BtA0p3uq_KMj2CzqRaCu-20" value="" style="endArrow=classic;startArrow=classic;html=1;exitX=0;exitY=0.5;exitDx=0;exitDy=0;entryX=0.5;entryY=1;entryDx=0;entryDy=0;" parent="1" source="BtA0p3uq_KMj2CzqRaCu-12" target="BtA0p3uq_KMj2CzqRaCu-9" edge="1">
          <mxGeometry width="50" height="50" relative="1" as="geometry">
            <mxPoint x="-280" y="225" as="sourcePoint" />
            <mxPoint x="-230" y="175" as="targetPoint" />
          </mxGeometry>
        </mxCell>
        <mxCell id="BtA0p3uq_KMj2CzqRaCu-21" value="Client" style="ellipse;whiteSpace=wrap;html=1;dashed=1;strokeWidth=1;" parent="1" vertex="1">
          <mxGeometry x="-170" y="210" width="120" height="80" as="geometry" />
        </mxCell>
        <mxCell id="BtA0p3uq_KMj2CzqRaCu-24" value="" style="shape=flexArrow;endArrow=classic;startArrow=classic;html=1;entryX=0;entryY=0.5;entryDx=0;entryDy=0;exitX=1;exitY=0.5;exitDx=0;exitDy=0;" parent="1" source="BtA0p3uq_KMj2CzqRaCu-21" target="BtA0p3uq_KMj2CzqRaCu-9" edge="1">
          <mxGeometry width="50" height="50" relative="1" as="geometry">
            <mxPoint x="-79" y="250" as="sourcePoint" />
            <mxPoint x="10" y="245" as="targetPoint" />
          </mxGeometry>
        </mxCell>
        <mxCell id="BtA0p3uq_KMj2CzqRaCu-27" value="Http&lt;br&gt;Request" style="text;html=1;strokeColor=none;fillColor=none;align=center;verticalAlign=middle;whiteSpace=wrap;rounded=0;dashed=1;" parent="1" vertex="1">
          <mxGeometry x="-30" y="210" width="40" height="20" as="geometry" />
        </mxCell>
        <mxCell id="BtA0p3uq_KMj2CzqRaCu-29" value="" style="whiteSpace=wrap;html=1;aspect=fixed;dashed=1;strokeWidth=1;" parent="1" vertex="1">
          <mxGeometry x="920" y="290" width="270" height="270" as="geometry" />
        </mxCell>
        <mxCell id="BtA0p3uq_KMj2CzqRaCu-30" value="" style="whiteSpace=wrap;html=1;aspect=fixed;dashed=1;strokeWidth=1;" parent="1" vertex="1">
          <mxGeometry x="580" y="290" width="270" height="270" as="geometry" />
        </mxCell>
        <mxCell id="BtA0p3uq_KMj2CzqRaCu-31" value="Container Docker&lt;br&gt;&lt;br&gt;App React Image" style="rounded=1;whiteSpace=wrap;html=1;dashed=1;strokeWidth=1;" parent="1" vertex="1">
          <mxGeometry x="640" y="335" width="120" height="60" as="geometry" />
        </mxCell>
        <mxCell id="BtA0p3uq_KMj2CzqRaCu-32" value="Container Docker&lt;br&gt;&lt;br&gt;Rest Api&lt;br&gt;Web Service Image" style="rounded=1;whiteSpace=wrap;html=1;dashed=1;strokeWidth=1;" parent="1" vertex="1">
          <mxGeometry x="640" y="460" width="120" height="60" as="geometry" />
        </mxCell>
        <mxCell id="BtA0p3uq_KMj2CzqRaCu-33" value="Postgres" style="shape=datastore;whiteSpace=wrap;html=1;" parent="1" vertex="1">
          <mxGeometry x="990" y="380" width="130" height="150" as="geometry" />
        </mxCell>
        <mxCell id="BtA0p3uq_KMj2CzqRaCu-34" value="&lt;font style=&quot;font-size: 24px&quot;&gt;AWS 1&lt;/font&gt;" style="text;html=1;strokeColor=none;fillColor=none;align=center;verticalAlign=middle;whiteSpace=wrap;rounded=0;dashed=1;strokeWidth=1;" parent="1" vertex="1">
          <mxGeometry x="610" y="300" width="180" height="20" as="geometry" />
        </mxCell>
        <mxCell id="BtA0p3uq_KMj2CzqRaCu-35" value="&lt;font style=&quot;font-size: 24px&quot;&gt;AWS 2&lt;/font&gt;" style="text;html=1;strokeColor=none;fillColor=none;align=center;verticalAlign=middle;whiteSpace=wrap;rounded=0;dashed=1;strokeWidth=1;" parent="1" vertex="1">
          <mxGeometry x="960" y="300" width="180" height="20" as="geometry" />
        </mxCell>
        <mxCell id="BtA0p3uq_KMj2CzqRaCu-38" value="" style="shape=flexArrow;endArrow=classic;startArrow=classic;html=1;" parent="1" edge="1">
          <mxGeometry width="50" height="50" relative="1" as="geometry">
            <mxPoint x="810" y="500" as="sourcePoint" />
            <mxPoint x="960" y="500" as="targetPoint" />
            <Array as="points">
              <mxPoint x="870" y="500" />
            </Array>
          </mxGeometry>
        </mxCell>
        <mxCell id="BtA0p3uq_KMj2CzqRaCu-39" value="" style="shape=flexArrow;endArrow=classic;startArrow=classic;html=1;entryX=0.5;entryY=1;entryDx=0;entryDy=0;exitX=0.5;exitY=0;exitDx=0;exitDy=0;" parent="1" source="BtA0p3uq_KMj2CzqRaCu-32" target="BtA0p3uq_KMj2CzqRaCu-31" edge="1">
          <mxGeometry width="50" height="50" relative="1" as="geometry">
            <mxPoint x="760" y="450" as="sourcePoint" />
            <mxPoint x="810" y="400" as="targetPoint" />
          </mxGeometry>
        </mxCell>
        <mxCell id="BtA0p3uq_KMj2CzqRaCu-41" value="Http&lt;br&gt;Request" style="text;html=1;strokeColor=none;fillColor=none;align=center;verticalAlign=middle;whiteSpace=wrap;rounded=0;dashed=1;" parent="1" vertex="1">
          <mxGeometry x="720" y="415" width="40" height="20" as="geometry" />
        </mxCell>
      </root>
    </mxGraphModel>
  </diagram>
</mxfile>
